<svg viewBox="0 0 24 24" xmlns="http://www.w3.org/2000/svg" xmlns:xlink="http://www.w3.org/1999/xlink">
<linearGradient id="New_Gradient_Swatch_copy_4" gradientUnits="userSpaceOnUse" x1="5.11" x2="18.89" y1="18.89" y2="5.11">
<stop offset="0" stop-color="#4F46E5"/>
<stop offset=".1" stop-color="#4F46E5"/>
<stop offset=".26" stop-color="#542ba1"/>
<stop offset=".47" stop-color="#7c21ab"/>
<stop offset=".7" stop-color="#b313b9"/>
<stop offset=".97" stop-color="#E879F9"/>
<stop offset=".99" stop-color="#E879F9"/>
</linearGradient><g id="Icon">
<path d="m12 2.25a9.75 9.75 0 1 0 9.75 9.75 9.76 9.76 0 0 0 -9.75-9.75zm0 18a8.25 8.25 0 1 1 8.25-8.25 8.26 8.26 0 0 1 -8.25 8.25zm4.48-11.83a.76.76 0 0 1 .1 1.06l-5 6a.79.79 0 0 1 -.55.27.75.75 0 0 1 -.53-.22l-3-3a.75.75 0 0 1 1.06-1.06l2.44 2.42 4.47-5.37a.76.76 0 0 1 1.01-.1z" fill="url(#New_Gradient_Swatch_copy_4)"/></g></svg>