<?xml version="1.0" encoding="UTF-8"?>
<!-- Generator: Adobe Illustrator 24.3.0, SVG Export Plug-In . SVG Version: 6.00 Build 0)  -->
<svg xmlns="http://www.w3.org/2000/svg" xmlns:xlink="http://www.w3.org/1999/xlink" version="1.1" id="Capa_1" x="0px" y="0px" viewBox="0 0 460 460" style="enable-background:new 0 0 460 460;" xml:space="preserve" width="512" height="512">
<g>
	<g id="Layer_83">
		
			<linearGradient id="SVGID_1_" gradientUnits="userSpaceOnUse" x1="-66.5" y1="575.375" x2="-9" y2="575.375" gradientTransform="matrix(8 0 0 -8 532 4833)">
			<stop offset="0" style="stop-color:#E879F9"/>
			<stop offset="1" style="stop-color:#4F46E5"/>
		</linearGradient>
		<path style="fill:url(#SVGID_1_);" d="M331.84,191.76h-70.88V171.6c0-17.244,13.956-31.236,31.2-31.28h32c3.314,0,6-2.686,6-6V70    c-0.043-3.296-2.704-5.957-6-6h-54.88c-49.271,0.088-89.192,40.009-89.28,89.28v37.36h-51.84c-3.296,0.043-5.957,2.704-6,6V262    c0.043,3.296,2.704,5.957,6,6H180v122c0.043,3.296,2.704,5.957,6,6h73.04c3.296-0.043,5.957-2.704,6-6V268h50.8    c2.745-0.001,5.129-1.888,5.76-4.56l16-64c0.466-1.776,0.082-3.667-1.04-5.12C335.461,192.79,333.722,191.847,331.84,191.76z     M311.12,255.76h-52.08c-3.314,0-6,2.686-6,6V384H192V262c-0.043-3.296-2.704-5.957-6-6h-52v-53.36h52c3.314,0,6-2.686,6-6v-43.36    c0.044-42.662,34.618-77.236,77.28-77.28H318v52.32h-25.84c-23.872,0.044-43.2,19.408-43.2,43.28V198c0,3.314,2.686,6,6,6h69.2    L311.12,255.76z M230,0C102.975,0,0,102.975,0,230s102.975,230,230,230s230-102.975,230-230C459.824,103.048,356.952,0.176,230,0z     M230,448c-120.398,0-218-97.602-218-218S109.602,12,230,12s218,97.602,218,218C447.868,350.343,350.343,447.868,230,448z"/>
	</g>
</g>















</svg>
